<svg width="1441" height="245" viewBox="0 0 1441 245" fill="none" xmlns="http://www.w3.org/2000/svg">
<path d="M803.877 119.11L720.205 244.391L636.377 119.11L720.205 63.7429L803.877 119.11Z" fill="black"/>
<rect width="467.407" height="155.802" transform="matrix(1 0 0 -1 486.424 115.802)" fill="black"/>
<path fill-rule="evenodd" clip-rule="evenodd" d="M755.938 43.9768L788.078 26.3056L788.103 26.3395L788.142 26.3181L788.142 -20.2115L718.606 23.9615L652.114 -20.2349L652.114 26.2947L684.862 45.1456L685.112 45.2769L718.908 67.0394L753.764 45.174L753.76 45.1715L755.938 43.9768Z" fill="#FF2B06"/>
<path opacity="0.5" fill-rule="evenodd" clip-rule="evenodd" d="M754.287 50.1238L788.146 69.1889L788.146 115.781L719.654 72.271L753.21 50.663L754.287 50.1238ZM718.125 71.9228L652.108 115.804L652.108 69.2706L684.305 50.2598L685.11 50.663L718.125 71.9228Z" fill="#FF2B06"/>
<rect width="643.33" height="46.4522" transform="matrix(1 0 0 -1 796.797 26.2703)" fill="#FF2B06"/>
<rect width="643.58" height="46.4522" transform="matrix(1 0 0 -1 0.126953 26.2704)" fill="#FF2B06"/>
<rect x="796.797" y="26.2703" width="8.65568" height="46.4522" transform="rotate(-180 796.797 26.2703)" fill="#FF2B06"/>
<rect x="652.362" y="26.2703" width="8.65568" height="46.4522" transform="rotate(-180 652.362 26.2703)" fill="#FF2B06"/>
<path d="M788.141 125.678L720.19 227.42L652.113 125.678L720.19 80.7143L788.141 125.678Z" fill="#4C0D02"/>
</svg>
